<svg width="26" height="25" viewBox="0 0 26 25" fill="none" xmlns="http://www.w3.org/2000/svg">
<path d="M18.3255 8.66015C18.2171 8.37923 18.0509 8.12414 17.8379 7.91131C17.6248 7.69849 17.3696 7.53265 17.0885 7.42448C16.7016 7.28115 16.2928 7.2054 15.8802 7.20052C15.194 7.16927 14.9883 7.16146 13.25 7.16146C11.5117 7.16146 11.306 7.16927 10.6198 7.20052C10.2067 7.20525 9.79754 7.281 9.41016 7.42448C9.12923 7.53294 8.87414 7.69905 8.66132 7.9121C8.44849 8.12515 8.28265 8.38042 8.17448 8.66146C8.03116 9.04843 7.9554 9.45716 7.95052 9.86979C7.91927 10.556 7.91146 10.7617 7.91146 12.5C7.91146 14.2383 7.91927 14.444 7.95052 15.1302C7.95525 15.5433 8.03101 15.9525 8.17448 16.3398C8.28295 16.6208 8.44906 16.8759 8.66211 17.0887C8.87516 17.3015 9.13042 17.4673 9.41146 17.5755C9.79843 17.7188 10.2072 17.7946 10.6198 17.7995C11.306 17.8307 11.5117 17.8372 13.25 17.8372C14.9883 17.8372 15.194 17.8307 15.8802 17.7982C16.2932 17.7939 16.7024 17.7185 17.0898 17.5755C17.3708 17.467 17.6259 17.3009 17.8387 17.0879C18.0515 16.8748 18.2174 16.6196 18.3255 16.3385C18.4688 15.9516 18.5446 15.5428 18.5495 15.1302C18.5807 14.444 18.5872 14.2383 18.5872 12.5C18.5872 10.7617 18.5807 10.556 18.5482 9.86979C18.5439 9.45679 18.4686 9.04762 18.3255 8.66015ZM13.25 15.8437C12.5887 15.8437 11.9422 15.6476 11.3923 15.2802C10.8424 14.9128 10.4139 14.3906 10.1608 13.7796C9.9077 13.1686 9.84148 12.4963 9.9705 11.8477C10.0995 11.199 10.418 10.6032 10.8856 10.1356C11.3532 9.66798 11.949 9.34952 12.5977 9.2205C13.2463 9.09148 13.9186 9.1577 14.5296 9.41078C15.1406 9.66386 15.6628 10.0924 16.0302 10.6423C16.3976 11.1922 16.5938 11.8387 16.5938 12.5C16.5938 13.3868 16.2415 14.2373 15.6144 14.8644C14.9873 15.4915 14.1368 15.8437 13.25 15.8437ZM16.7253 9.80599C16.5707 9.80599 16.4197 9.76017 16.2912 9.67432C16.1627 9.58848 16.0626 9.46646 16.0035 9.32371C15.9444 9.18095 15.9289 9.02387 15.959 8.87232C15.9892 8.72078 16.0636 8.58157 16.1728 8.47231C16.2821 8.36305 16.4213 8.28864 16.5728 8.2585C16.7244 8.22835 16.8815 8.24383 17.0242 8.30296C17.167 8.36209 17.289 8.46222 17.3748 8.5907C17.4607 8.71917 17.5065 8.87022 17.5065 9.02474C17.5065 9.23194 17.4242 9.43065 17.2777 9.57716C17.1312 9.72368 16.9325 9.80599 16.7253 9.80599ZM15.4206 12.5C15.4206 12.9293 15.2933 13.349 15.0548 13.7059C14.8163 14.0629 14.4773 14.3411 14.0806 14.5053C13.684 14.6696 13.2476 14.7126 12.8265 14.6289C12.4055 14.5451 12.0187 14.3384 11.7152 14.0348C11.4116 13.7313 11.2049 13.3445 11.1211 12.9235C11.0374 12.5024 11.0804 12.066 11.2447 11.6694C11.4089 11.2727 11.6871 10.9337 12.0441 10.6952C12.401 10.4567 12.8207 10.3294 13.25 10.3294C13.8257 10.3294 14.3778 10.5581 14.7848 10.9652C15.1919 11.3722 15.4206 11.9243 15.4206 12.5ZM13.25 0C10.7777 0 8.36099 0.733112 6.30538 2.10663C4.24976 3.48015 2.64761 5.43238 1.70151 7.71646C0.755416 10.0005 0.507874 12.5139 0.99019 14.9386C1.4725 17.3634 2.66301 19.5907 4.41117 21.3388C6.15933 23.087 8.38661 24.2775 10.8114 24.7598C13.2361 25.2421 15.7495 24.9946 18.0335 24.0485C20.3176 23.1024 22.2699 21.5002 23.6434 19.4446C25.0169 17.389 25.75 14.9723 25.75 12.5C25.75 9.18479 24.433 6.00537 22.0888 3.66116C19.7446 1.31696 16.5652 0 13.25 0ZM19.7214 15.1836C19.7103 15.7239 19.6077 16.2584 19.418 16.7643C19.2508 17.1967 18.995 17.5894 18.6672 17.9172C18.3394 18.245 17.9467 18.5007 17.5143 18.668C17.0088 18.8576 16.4747 18.9602 15.9349 18.9713C15.2396 19.0026 15.0182 19.0104 13.25 19.0104C11.4818 19.0104 11.2604 19.0026 10.5651 18.9713C10.0253 18.9602 9.49123 18.8576 8.98568 18.668C8.55329 18.5007 8.1606 18.245 7.83278 17.9172C7.50497 17.5894 7.24925 17.1967 7.08204 16.7643C6.8924 16.2588 6.78982 15.7247 6.77865 15.1849C6.7474 14.4896 6.73959 14.2682 6.73959 12.5C6.73959 10.7318 6.7474 10.5104 6.77865 9.8151C6.7894 9.27534 6.89154 8.74131 7.08073 8.23567C7.24794 7.80291 7.50379 7.40989 7.83184 7.08184C8.1599 6.75378 8.55292 6.49794 8.98568 6.33073C9.49131 6.14154 10.0253 6.0394 10.5651 6.02864C11.2604 5.99739 11.4818 5.98958 13.25 5.98958C15.0182 5.98958 15.2396 5.99739 15.9349 6.02864C16.4747 6.0394 17.0087 6.14154 17.5143 6.33073C17.9468 6.49809 18.3396 6.754 18.6674 7.08205C18.9953 7.4101 19.2509 7.80304 19.418 8.23567C19.6076 8.74123 19.7102 9.27527 19.7214 9.8151C19.7526 10.5104 19.7604 10.7318 19.7604 12.5C19.7604 14.2682 19.7526 14.4883 19.7214 15.1836Z" fill="white"/>
</svg>
