<svg width="25" height="26" viewBox="0 0 25 26" fill="none" xmlns="http://www.w3.org/2000/svg">
<path d="M12.4902 0.740234C19.3939 0.740234 24.9912 6.33598 24.9912 13.2393C24.9912 20.1425 19.3939 25.7393 12.4902 25.7393C5.58677 25.739 -0.00976562 20.1424 -0.00976562 13.2393C-0.00975528 6.33613 5.58677 0.740484 12.4902 0.740234ZM14.168 5.88672V15.4912C14.1679 16.0092 14.0063 16.5156 13.7031 16.9463C13.3999 17.377 12.969 17.7129 12.4648 17.9111C11.9606 18.1094 11.4054 18.1606 10.8701 18.0596C10.3348 17.9585 9.84299 17.7091 9.45703 17.3428C9.07113 16.9765 8.80765 16.51 8.70117 16.002C8.59471 15.4939 8.64953 14.9669 8.8584 14.4883C9.06724 14.0098 9.42134 13.6013 9.875 13.3135C10.3288 13.0257 10.8624 12.8711 11.4082 12.8711V11.125C10.4985 11.125 9.6089 11.3817 8.85254 11.8613C8.09636 12.341 7.50726 13.0228 7.15918 13.8203C6.81104 14.618 6.71998 15.4959 6.89746 16.3428C7.07497 17.1895 7.51303 17.9676 8.15625 18.5781C8.79941 19.1885 9.61875 19.604 10.5107 19.7725C11.403 19.9409 12.3285 19.8548 13.1689 19.5244C14.0093 19.194 14.7271 18.6339 15.2324 17.916C15.7378 17.1982 16.0078 16.3545 16.0078 15.4912V9.52832C16.8633 10.4145 18.075 11.1249 19.6875 11.125V9.37891C18.5811 9.37883 17.7515 8.84561 17.126 8.08008C16.4867 7.29867 16.1217 6.51099 15.9893 5.88672H14.168Z" fill="white"/>
</svg>
