<svg width="26" height="26" viewBox="0 0 26 26" fill="none" xmlns="http://www.w3.org/2000/svg">
<circle cx="12.7937" cy="12.584" r="12.5" fill="white"/>
<path d="M6.91138 18.4634C7.21522 18.109 7.49059 17.7867 7.76719 17.4654C9.02707 16.0007 10.2885 14.5369 11.5515 13.074C11.6519 12.9579 11.6654 12.8852 11.5731 12.752C10.0612 10.5626 8.55322 8.37005 7.04906 6.17443C7.01029 6.11823 6.97543 6.06006 6.92291 5.98054C7.00096 5.97588 7.05594 5.96974 7.11067 5.96974C8.19669 5.96974 9.28272 5.97171 10.3688 5.96631C10.5005 5.96631 10.5776 6.00582 10.6527 6.11578C11.6272 7.54271 12.6045 8.96702 13.5844 10.3887C13.6205 10.4412 13.658 10.4925 13.7056 10.5605C13.8664 10.3752 14.019 10.2002 14.1705 10.0243C15.2976 8.71431 16.424 7.40387 17.5495 6.09295C17.6251 6.0046 17.7012 5.96606 17.8173 5.97024C18.1062 5.97735 18.3953 5.97244 18.7347 5.97244L14.184 11.2612L19.1323 18.4634H18.9451C17.8475 18.4634 16.7497 18.4616 15.6521 18.4663C15.5333 18.4663 15.4644 18.4292 15.3976 18.3316C14.3632 16.8197 13.3261 15.3091 12.2863 13.7997C12.247 13.7425 12.2068 13.6861 12.1579 13.6164C11.8114 14.0184 11.4722 14.4111 11.1338 14.8045C10.1141 15.9906 9.09358 17.1762 8.07226 18.3615C8.03177 18.4086 7.96206 18.4572 7.90439 18.4597C7.58975 18.469 7.27461 18.4634 6.91138 18.4634ZM17.6507 17.6895C17.6089 17.625 17.5854 17.5867 17.5596 17.5499C15.079 14.0018 12.5989 10.4533 10.1194 6.90434C10.0598 6.81893 9.99913 6.78163 9.89262 6.78163C9.44299 6.78752 8.99361 6.78384 8.54398 6.78457C8.50029 6.78457 8.45636 6.78973 8.39058 6.7939C8.43697 6.86458 8.46961 6.91661 8.5052 6.9684C9.90579 8.97209 11.3065 10.9757 12.7075 12.9792C13.7739 14.5045 14.8411 16.0293 15.9091 17.5536C15.9501 17.6122 16.0281 17.6814 16.0902 17.6829C16.5978 17.6939 17.1056 17.6895 17.6502 17.6895H17.6507Z" fill="black"/>
<path d="M17.6502 17.6894C17.1056 17.6894 16.5978 17.6938 16.0903 17.6835C16.0282 17.6821 15.9501 17.6128 15.9091 17.5542C14.8395 16.031 13.7723 14.5063 12.7075 12.9799C11.3066 10.9765 9.90583 8.97288 8.50524 6.96903C8.46965 6.91822 8.43701 6.86521 8.39062 6.79453C8.4564 6.79035 8.50033 6.7852 8.54402 6.7852C8.99365 6.7852 9.44303 6.78815 9.89266 6.78226C9.99917 6.78103 10.0598 6.81882 10.1194 6.90497C12.5978 10.4542 15.0777 14.0025 17.5592 17.5498C17.5849 17.5866 17.6085 17.6249 17.6502 17.6894Z" fill="white"/>
</svg>
