<svg width="32" height="22" viewBox="0 0 32 22" fill="none" xmlns="http://www.w3.org/2000/svg">
<path d="M15.9864 0.427734H16.1584C17.7466 0.433474 25.7941 0.490876 27.9639 1.06871C28.6198 1.24507 29.2175 1.58881 29.6973 2.0656C30.1771 2.54238 30.5221 3.13551 30.6979 3.7857C30.893 4.51278 31.0302 5.47521 31.1229 6.46825L31.1423 6.66724L31.1848 7.16471L31.2002 7.3637C31.3258 9.11252 31.3413 10.7504 31.3432 11.1082V11.2517C31.3413 11.6229 31.3239 13.3717 31.1848 15.1932L31.1693 15.3941L31.1519 15.5931C31.0553 16.6876 30.9123 17.7744 30.6979 18.5741C30.5221 19.2243 30.1771 19.8175 29.6973 20.2942C29.2175 20.771 28.6198 21.1148 27.9639 21.2911C25.7226 21.8881 17.2037 21.9302 16.0231 21.9321H15.7488C15.1517 21.9321 12.6825 21.9206 10.0934 21.8326L9.7649 21.8211L9.5968 21.8135L9.26641 21.8001L8.93601 21.7867C6.79132 21.6929 4.74903 21.5418 3.80807 21.2892C3.15235 21.113 2.55478 20.7696 2.07503 20.2931C1.59528 19.8167 1.25014 19.224 1.07407 18.5741C0.859602 17.7763 0.716623 16.6876 0.620015 15.5931L0.604558 15.3922L0.589101 15.1932C0.493195 13.8967 0.440354 12.5975 0.430664 11.2976L0.430664 11.0622C0.434528 10.6509 0.449986 9.22924 0.554322 7.66027L0.567847 7.4632L0.573643 7.3637L0.589101 7.16471L0.631608 6.66724L0.65093 6.46825C0.743673 5.47521 0.880856 4.51087 1.076 3.7857C1.25177 3.13551 1.59678 2.54238 2.07655 2.0656C2.55632 1.58881 3.15405 1.24507 3.81 1.06871C4.75096 0.819976 6.79325 0.666906 8.93794 0.571237L9.26641 0.557844L9.59874 0.546364L9.7649 0.540624L10.0953 0.52723C11.9341 0.468687 13.7737 0.436157 15.6135 0.429648L15.9864 0.427734ZM12.7965 6.56965V15.7883L20.8284 11.1809L12.7965 6.56965Z" fill="white"/>
</svg>
