<svg width="398" height="69" viewBox="0 0 398 69" fill="none" xmlns="http://www.w3.org/2000/svg">
<path d="M199 9.5C251.413 9.5 298.829 12.9108 333.112 18.4141C350.265 21.1676 364.062 24.4346 373.536 28.0303C378.281 29.8312 381.854 31.6824 384.214 33.5332C386.599 35.4042 387.5 37.0738 387.5 38.5C387.5 39.9262 386.599 41.5958 384.214 43.4668C381.854 45.3176 378.281 47.1688 373.536 48.9697C364.062 52.5654 350.265 55.8324 333.112 58.5859C298.829 64.0892 251.413 67.5 199 67.5C146.587 67.5 99.1707 64.0892 64.8877 58.5859C47.7346 55.8324 33.9382 52.5654 24.4639 48.9697C19.7187 47.1688 16.1455 45.3176 13.7861 43.4668C11.4011 41.5958 10.5 39.9262 10.5 38.5C10.5 37.0738 11.4011 35.4042 13.7861 33.5332C16.1455 31.6824 19.7187 29.8312 24.4639 28.0303C33.9382 24.4346 47.7346 21.1676 64.8877 18.4141C99.1707 12.9108 146.587 9.5 199 9.5Z" stroke="#F13841" stroke-width="3"/>
<path d="M38.4995 13.264H41.0595L54.5315 56.304C54.8302 57.264 55.1502 58.0107 55.4915 58.544C55.8542 59.056 56.3662 59.4293 57.0275 59.664C57.6888 59.8987 58.6168 60.08 59.8115 60.208V62H41.6995V60.208C43.2782 60.1013 44.4728 59.952 45.2835 59.76C46.1155 59.568 46.5955 59.1413 46.7235 58.48C46.8728 57.8187 46.7342 56.752 46.3075 55.28L43.4915 45.712H31.6515L29.3155 53.68C28.7182 55.728 28.7608 57.2107 29.4435 58.128C30.1262 59.024 31.7368 59.7173 34.2755 60.208V62H19.4275V60.208C21.1342 59.8453 22.4142 59.4187 23.2675 58.928C24.1208 58.4373 24.7715 57.744 25.2195 56.848C25.6675 55.952 26.1262 54.7147 26.5955 53.136L38.4995 13.264ZM37.4755 25.744L32.5155 42.704H42.6275L37.6675 25.744H37.4755ZM72.5195 62.672C71.1968 62.672 69.9168 62.416 68.6795 61.904C67.4635 61.3707 66.3328 60.6453 65.2875 59.728H64.9675L61.7995 62H60.7435V15.344L56.7755 13.616V12.528L66.0875 9.424H66.8235V32.176C69.0848 29.2533 71.7728 27.792 74.8875 27.792C77.0848 27.792 79.0155 28.4747 80.6795 29.84C82.3648 31.184 83.6768 33.0613 84.6155 35.472C85.5755 37.8613 86.0555 40.6453 86.0555 43.824C86.0555 47.3867 85.4582 50.5973 84.2635 53.456C83.0688 56.2933 81.4475 58.544 79.3995 60.208C77.3728 61.8507 75.0795 62.672 72.5195 62.672ZM72.0715 59.952C74.2688 59.952 76.0182 58.64 77.3195 56.016C78.6422 53.3707 79.3035 49.904 79.3035 45.616C79.3035 41.328 78.6742 37.968 77.4155 35.536C76.1568 33.104 74.4075 31.888 72.1675 31.888C71.0795 31.888 70.0768 32.1973 69.1595 32.816C68.2635 33.4133 67.4848 34.2453 66.8235 35.312V51.984C66.8235 54.3733 67.3035 56.304 68.2635 57.776C69.2235 59.2267 70.4928 59.952 72.0715 59.952ZM101.487 62.672C98.7137 62.672 96.2923 61.904 94.223 60.368C92.1537 58.8107 90.543 56.72 89.391 54.096C88.2603 51.4507 87.695 48.496 87.695 45.232C87.695 41.9467 88.2603 38.992 89.391 36.368C90.543 33.744 92.1537 31.664 94.223 30.128C96.2923 28.5707 98.7137 27.792 101.487 27.792C104.282 27.792 106.714 28.5707 108.783 30.128C110.852 31.664 112.452 33.744 113.583 36.368C114.735 38.992 115.311 41.9467 115.311 45.232C115.311 48.496 114.735 51.4507 113.583 54.096C112.452 56.72 110.852 58.8107 108.783 60.368C106.714 61.904 104.282 62.672 101.487 62.672ZM101.487 59.632C103.13 59.632 104.474 58.9707 105.519 57.648C106.564 56.304 107.332 54.544 107.823 52.368C108.335 50.1707 108.591 47.7813 108.591 45.2C108.591 42.6187 108.346 40.24 107.855 38.064C107.364 35.888 106.596 34.1387 105.551 32.816C104.506 31.4933 103.151 30.832 101.487 30.832C99.8443 30.832 98.4897 31.4933 97.423 32.816C96.3777 34.1387 95.6097 35.8987 95.119 38.096C94.6283 40.272 94.383 42.6507 94.383 45.232C94.383 47.8133 94.6283 50.2027 95.119 52.4C95.6097 54.576 96.3777 56.3253 97.423 57.648C98.4683 58.9707 99.823 59.632 101.487 59.632ZM127.253 62.672C122.154 62.672 119.605 59.5147 119.605 53.2V31.184L115.797 30.096V28.432H125.717V50.768C125.717 53.6053 126.112 55.5467 126.901 56.592C127.712 57.616 128.96 58.128 130.645 58.128C131.605 58.128 132.544 57.8613 133.461 57.328C134.4 56.7733 135.253 55.9093 136.021 54.736V31.184L132.309 30.096V28.432H142.101V56.88L145.717 58.48V59.536L136.949 62.672H136.309V57.36C135.072 59.024 133.664 60.3253 132.085 61.264C130.528 62.2027 128.917 62.672 127.253 62.672ZM155.756 62.672C151.553 62.672 149.452 59.9307 149.452 54.448V31.056H146.028L145.804 29.648L154.348 20.048L155.532 20.24V28.432H163.02L162.508 31.056H155.532V53.808C155.532 57.2853 156.556 59.024 158.604 59.024C160.033 59.024 161.217 58.2667 162.156 56.752L163.148 58.096C162.337 59.5253 161.271 60.6453 159.948 61.456C158.647 62.2667 157.249 62.672 155.756 62.672ZM174.117 62V60.208L178.469 58.864V16.336L174.117 15.056V13.264H190.021C192.453 13.264 194.469 13.4773 196.069 13.904C197.669 14.3093 199.013 14.9493 200.101 15.824C201.338 16.8693 202.298 18.2027 202.981 19.824C203.685 21.4453 204.037 23.1947 204.037 25.072C204.037 27.7387 203.279 30 201.765 31.856C200.25 33.6907 198.085 34.9493 195.269 35.632V35.856C198.447 36.304 201.007 37.7333 202.949 40.144C204.89 42.5333 205.861 45.5093 205.861 49.072C205.861 51.0133 205.541 52.8267 204.901 54.512C204.282 56.1973 203.418 57.584 202.309 58.672C201.093 59.8667 199.599 60.72 197.829 61.232C196.079 61.744 193.765 62 190.885 62H174.117ZM185.221 34.608H187.269C188.101 34.608 188.783 34.5973 189.317 34.576C189.871 34.5333 190.394 34.48 190.885 34.416C192.783 34.16 194.255 33.232 195.301 31.632C196.346 30.032 196.869 27.856 196.869 25.104C196.869 22.2453 196.207 20.048 194.885 18.512C194.138 17.6587 193.242 17.0507 192.197 16.688C191.151 16.3253 189.786 16.144 188.101 16.144H185.221V34.608ZM189.444 59.184C192.517 59.184 194.778 58.32 196.229 56.592C197.701 54.864 198.437 52.176 198.437 48.528C198.437 44.752 197.626 41.9787 196.005 40.208C194.383 38.416 191.866 37.52 188.453 37.52H185.221V55.408C185.221 56.9013 185.519 57.904 186.117 58.416C186.714 58.928 187.823 59.184 189.444 59.184ZM218.263 62.672C213.164 62.672 210.615 59.5147 210.615 53.2V31.184L206.807 30.096V28.432H216.727V50.768C216.727 53.6053 217.122 55.5467 217.911 56.592C218.722 57.616 219.97 58.128 221.655 58.128C222.615 58.128 223.554 57.8613 224.471 57.328C225.41 56.7733 226.263 55.9093 227.031 54.736V31.184L223.319 30.096V28.432H233.111V56.88L236.727 58.48V59.536L227.959 62.672H227.319V57.36C226.082 59.024 224.674 60.3253 223.095 61.264C221.538 62.2027 219.927 62.672 218.263 62.672ZM237.134 62V60.304L240.974 59.248V33.776L237.134 31.984V30.896L246.062 27.792H246.798V32.912C248.142 31.312 249.625 30.064 251.246 29.168C252.889 28.2507 254.574 27.792 256.302 27.792C261.358 27.792 263.886 30.9387 263.886 37.232V59.28L267.662 60.304V62H254.094V60.304L257.774 59.28V39.792C257.774 34.736 256.057 32.208 252.622 32.208C250.446 32.208 248.59 33.3173 247.054 35.536V59.248L250.766 60.304V62H237.134ZM274.709 62.672C272.789 62.672 271.253 61.9787 270.101 60.592C268.949 59.184 268.373 57.328 268.373 55.024C268.373 52.1013 269.482 49.7547 271.701 47.984C273.919 46.192 277.578 44.72 282.677 43.568V38.032C282.677 35.28 282.41 33.3813 281.877 32.336C281.343 31.2693 280.383 30.736 278.997 30.736C277.653 30.736 276.575 31.152 275.765 31.984C274.975 32.7947 274.581 33.904 274.581 35.312C274.581 35.7387 274.602 36.1653 274.645 36.592C274.709 37.0187 274.741 37.424 274.741 37.808C274.741 38.9387 274.453 39.8773 273.877 40.624C273.301 41.3493 272.575 41.712 271.701 41.712C270.89 41.712 270.229 41.3813 269.717 40.72C269.205 40.0587 268.949 39.1947 268.949 38.128C268.949 36.7627 269.386 35.376 270.261 33.968C271.135 32.5387 272.319 31.3013 273.813 30.256C276.117 28.6133 278.709 27.792 281.589 27.792C284.789 27.792 286.901 28.88 287.925 31.056C288.223 31.824 288.437 32.784 288.565 33.936C288.693 35.088 288.757 36.9227 288.757 39.44V53.328C288.757 55.3333 288.895 56.7307 289.173 57.52C289.45 58.288 289.941 58.672 290.645 58.672C291.477 58.672 292.277 58.1067 293.045 56.976L294.037 58.384C292.287 61.2427 290.229 62.672 287.861 62.672C285.045 62.672 283.391 60.848 282.901 57.2H282.709C281.642 58.9493 280.415 60.304 279.029 61.264C277.663 62.2027 276.223 62.672 274.709 62.672ZM277.941 57.968C279.903 57.968 281.482 56.8907 282.677 54.736V45.872C279.562 46.64 277.429 47.5467 276.277 48.592C275.146 49.616 274.581 51.1413 274.581 53.168C274.581 56.368 275.701 57.968 277.941 57.968ZM292.408 62V60.304L296.472 59.248V15.344L292.504 13.616V12.528L301.752 9.424H302.488V45.392L310.872 33.904C311.64 32.816 312.024 32.048 312.024 31.6C312.024 31.2373 311.757 30.96 311.224 30.768C310.69 30.5547 309.624 30.3307 308.024 30.096V28.432H320.44V30.096C319.032 30.3947 317.944 30.6827 317.176 30.96C316.408 31.2373 315.789 31.5893 315.32 32.016C314.872 32.4213 314.392 32.9867 313.88 33.712L308.728 40.784L319.736 59.248L323.96 60.304V62H313.848L304.728 46.224L302.488 49.296V59.248L306.552 60.304V62H292.408ZM332.71 62.672C330.107 62.672 327.835 61.968 325.894 60.56C323.974 59.1307 322.47 57.1467 321.382 54.608C320.315 52.048 319.782 49.0933 319.782 45.744C319.782 42.1813 320.379 39.056 321.574 36.368C322.768 33.68 324.432 31.5787 326.566 30.064C328.72 28.5493 331.206 27.792 334.022 27.792C337.563 27.792 340.272 29.0507 342.15 31.568C344.027 34.064 345.008 37.7333 345.094 42.576L344.742 42.992H326.31C326.288 43.2053 326.278 43.4293 326.278 43.664C326.278 52.7093 329.083 57.232 334.694 57.232C338.406 57.232 341.286 55.568 343.334 52.24L344.422 53.232C343.504 56.2187 342.022 58.544 339.974 60.208C337.926 61.8507 335.504 62.672 332.71 62.672ZM333.446 30.288C331.44 30.288 329.83 31.1947 328.614 33.008C327.419 34.8 326.683 37.36 326.406 40.688L338.406 40.144C338.512 39.6533 338.566 38.8213 338.566 37.648C338.566 32.7413 336.859 30.288 333.446 30.288ZM345.894 62V60.304L349.734 59.248V33.776L345.894 31.984V30.896L354.822 27.792H355.558V32.912C356.902 31.312 358.385 30.064 360.006 29.168C361.649 28.2507 363.334 27.792 365.062 27.792C370.118 27.792 372.646 30.9387 372.646 37.232V59.28L376.422 60.304V62H362.854V60.304L366.534 59.28V39.792C366.534 34.736 364.817 32.208 361.382 32.208C359.206 32.208 357.35 33.3173 355.814 35.536V59.248L359.526 60.304V62H345.894Z" fill="#0313FF"/>
</svg>
